Coordinates
version=1
nRows=6
nColumns=34
inDegrees=yes

Units are S.I. units (second, meters, Newtons, ...)
If the header above contains a line with 'inDegrees', this indicates whether rotational values are in degrees (yes) or radians (no).

endheader
time	pelvis_tilt	pelvis_list	pelvis_rotation	pelvis_tx	pelvis_ty	pelvis_tz	hip_flexion_r	hip_adduction_r	hip_rotation_r	knee_angle_r	ankle_angle_r	subtalar_angle_r	mtp_angle_r	hip_flexion_l	hip_adduction_l	hip_rotation_l	knee_angle_l	ankle_angle_l	subtalar_angle_l	mtp_angle_l	lumbar_extension	lumbar_bending	lumbar_rotation	arm_flex_r	arm_add_r	arm_rot_r	elbow_flex_r	pro_sup_r	arm_flex_l	arm_add_l	arm_rot_l	elbow_flex_l	pro_sup_l
      4.86666670	     -5.79382577	     -2.45597399	      6.25829903	      0.30751828	      1.59040070	     -0.16073725	      3.35044292	      0.87872622	      0.24917342	      0.62800972	      5.97522169	     -8.88204860	      0.00000000	      6.27793916	      1.46567125	     12.37748920	      3.63612561	      6.96071689	     -8.40892737	      0.00000000	     -3.26378944	     -0.00805703	     -4.42363779	     -2.61712100	     -7.20564227	     -7.27029107	     32.48042995	     91.46852132	     -2.27391558	     -6.74942627	      1.92272000	     18.96051130	     84.60968146
      4.88333330	     -5.96095799	     -2.61332671	      6.33289103	      0.30834203	      1.59211923	     -0.16096239	      3.76894126	      0.91910024	      0.02194452	      0.97078080	      6.09625798	     -8.65916960	      0.00000000	      6.61209228	      1.38266177	     12.34433108	      3.79366028	      7.24336291	     -8.27176751	      0.00000000	     -3.23071469	     -0.00682680	     -3.84680680	     -2.89804130	     -7.32243660	     -7.23916502	     32.52409493	     91.58178916	     -2.69265598	     -6.99083057	      2.16570121	     21.03171120	     84.75604443
      4.90000000	     -5.89529445	     -2.67944400	      6.38991136	      0.30841589	      1.58818630	     -0.16113064	      3.88909107	      0.90206780	     -0.11520709	      1.34278877	      6.07995003	     -8.73796260	      0.00000000	      6.63349981	      1.38379698	     12.43204847	      3.88235496	      7.27601715	     -8.23470110	      0.00000000	     -3.34408012	     -0.00697164	     -3.75983549	     -2.87589672	     -7.35274672	     -7.25402691	     32.51839222	     91.58898257	     -2.84151529	     -7.11331598	      2.15155971	     21.09182715	     84.76310858
      4.91666670	     -5.85484247	     -2.72993121	      6.41696419	      0.30868679	      1.59066896	     -0.16623964	      4.02488858	      0.82774825	     -0.15530131	      1.65301853	      6.12381717	     -8.78492636	      0.00000000	      6.64024007	      1.41496117	     12.42468787	      3.85202862	      7.36920658	     -8.26464082	      0.00000000	     -3.34023405	      0.05362976	     -3.83883925	     -2.89626415	     -7.43876474	     -7.28576185	     32.49115443	     91.59100894	     -2.69357986	     -7.16236998	      2.14135309	     21.27425575	     84.76907760
      4.93333330	     -6.14417002	     -2.81584161	      6.41121611	      0.30736368	      1.59287005	     -0.16622683	      4.66370150	      0.76445487	     -0.43849692	      2.25555530	      6.35179147	     -8.82319028	      0.00000000	      7.06415676	      1.42049095	     12.53620444	      4.01761142	      7.36603198	     -8.31999097	      0.00000000	     -3.20690376	     -0.00106696	     -3.82942697	     -2.87250590	     -7.32578451	     -7.64794954	     32.39331696	     91.69635644	     -3.62505552	     -7.54907362	      1.88921351	     23.97881238	     84.96215566
      4.95000000	     -5.95056180	     -2.91676941	      6.33812366	      0.31349358	      1.59339272	     -0.16894611	      4.63479169	      0.74977968	     -0.73044095	      2.79965064	      6.30243637	     -8.95260744	      0.00000000	      6.80351997	      1.36270809	     12.45971417	      4.05464003	      7.42330730	     -8.36921523	      0.00000000	     -3.15884414	      0.01307544	     -3.77732911	     -3.09585582	     -7.30962121	     -7.66378430	     32.30026480	     91.70733299	     -3.86371367	     -7.74112203	      1.79371718	     24.00867150	     84.96454581
